<svg viewBox="0 0 380 164" xmlns="http://www.w3.org/2000/svg" fill-rule="evenodd" clip-rule="evenodd" stroke-linejoin="round" stroke-miterlimit="1.414"><g fill="#ff314b" fill-rule="nonzero"><path d="M87.861 127.39V83.24c0-6.322-.868-10.883-2.606-13.68-1.738-2.799-4.907-4.198-9.507-4.198-3.373 0-6.465 1.166-9.277 3.498-2.81 2.332-4.676 5.311-5.596 8.939v49.59H40.942V18.57h19.933v39.797h.613c2.453-3.316 5.469-5.96 9.047-7.928 3.578-1.97 8.126-2.954 13.646-2.954 3.885 0 7.31.518 10.274 1.555 2.964 1.036 5.443 2.746 7.436 5.13 1.994 2.384 3.476 5.622 4.447 9.716.971 4.094 1.457 9.146 1.457 15.157v48.348H87.86zM120.828 88.525c0-13.162 3.169-23.293 9.507-30.392 6.338-7.1 15.23-10.649 26.68-10.649 6.133 0 11.449.985 15.946 2.954 4.498 1.969 8.23 4.741 11.194 8.317 2.964 3.575 5.187 7.902 6.67 12.98 1.482 5.079 2.223 10.675 2.223 16.79 0 13.162-3.143 23.293-9.43 30.392-6.287 7.1-15.154 10.65-26.603 10.65-6.134 0-11.45-.985-15.947-2.955-4.498-1.969-8.254-4.741-11.27-8.317-3.015-3.575-5.264-7.902-6.747-12.98-1.482-5.079-2.223-10.675-2.223-16.79zm20.547 0c0 3.42.306 6.581.92 9.483.613 2.902 1.533 5.441 2.76 7.618 1.226 2.176 2.836 3.86 4.83 5.052 1.993 1.192 4.37 1.788 7.13 1.788 5.213 0 9.097-1.918 11.653-5.752 2.556-3.835 3.833-9.898 3.833-18.189 0-7.15-1.175-12.929-3.526-17.333-2.351-4.405-6.338-6.607-11.96-6.607-4.907 0-8.74 1.865-11.5 5.596s-4.14 9.846-4.14 18.344zM206.848 49.66h14.567l2.3 9.328h.613c2.658-3.938 5.801-6.84 9.43-8.706 3.629-1.865 8.05-2.798 13.263-2.798 9.61 0 16.816 3.083 21.62 9.25 4.805 6.166 7.207 16.09 7.207 29.77 0 6.633-.767 12.618-2.3 17.956-1.533 5.337-3.808 9.871-6.823 13.602-3.016 3.731-6.696 6.581-11.04 8.55-4.345 1.97-9.328 2.954-14.95 2.954-3.17 0-5.776-.233-7.82-.7-2.045-.466-4.09-1.217-6.134-2.254v31.87h-19.933V49.66zm34.193 14.925c-3.884 0-6.925.984-9.123 2.953-2.198 1.97-3.91 4.923-5.137 8.861v32.336a18.454 18.454 0 0 0 4.677 2.72c1.687.674 3.91 1.01 6.67 1.01 5.724 0 10.018-2.046 12.88-6.14 2.862-4.094 4.293-10.856 4.293-20.287 0-6.84-1.124-12.126-3.373-15.857s-5.878-5.596-10.887-5.596zM310.194 101.273c0 3.627.46 6.27 1.38 7.928.92 1.658 2.403 2.487 4.447 2.487 1.227 0 2.428-.103 3.603-.31 1.176-.208 2.633-.674 4.37-1.4l2.147 15.857c-1.635.83-4.14 1.658-7.513 2.488a43.524 43.524 0 0 1-10.427 1.243c-5.827 0-10.273-1.373-13.34-4.12-3.066-2.746-4.6-7.28-4.6-13.602V18.569h19.933v82.704zM377.048 68.626c-3.17-1.14-6.031-1.71-8.587-1.71-3.578 0-6.568.96-8.97 2.876-2.402 1.918-4.012 4.38-4.83 7.385v50.213h-19.933V49.66h15.486l2.3 10.26h.614c1.738-3.834 4.089-6.788 7.053-8.86 2.965-2.073 6.44-3.11 10.427-3.11 2.658 0 5.673.57 9.046 1.71l-2.606 18.966z"/></g><path fill="none" d="M2.609 15.362h38.333v146.323H2.609z"/><g><path fill="none" d="M0 0h379.655v163.324H0z"/></g></svg>
