<svg xmlns="http://www.w3.org/2000/svg" viewBox="0 0 944 944">
  <defs>
    <style>.cls-2 {
      fill: #fff;
    }</style>
  </defs>
  <circle cx="472" cy="472" r="472"/>
  <g>
    <path class="cls-2"
          d="M285.75,393.59a5.81,5.81,0,0,1,2.55,3.82,6.63,6.63,0,0,1-1.13,4.39,4.63,4.63,0,0,1-3.54,2.12,7.09,7.09,0,0,1-4.11-1,105.92,105.92,0,0,0-25.9-13,91.49,91.49,0,0,0-29.86-4.81,85.88,85.88,0,0,0-33.82,6.65,83.85,83.85,0,0,0-27.6,18.83,88.4,88.4,0,0,0-18.68,28.87,102.95,102.95,0,0,0,0,73.59,88.4,88.4,0,0,0,18.68,28.87,83.85,83.85,0,0,0,27.6,18.83,85.88,85.88,0,0,0,33.82,6.65,90,90,0,0,0,29.72-4.81,113,113,0,0,0,25.76-12.74,5.85,5.85,0,0,1,4.25-1.13,5.2,5.2,0,0,1,3.68,2.26,5.91,5.91,0,0,1,1.13,4.25A5.18,5.18,0,0,1,286,558.9a97.06,97.06,0,0,1-17.12,9.34A124.25,124.25,0,0,1,247,575.46a102.66,102.66,0,0,1-23.21,2.68,95.9,95.9,0,0,1-38.21-7.64,98,98,0,0,1-31.42-21.37,100.82,100.82,0,0,1-21.37-32.27,109.9,109.9,0,0,1,0-81.23,100.82,100.82,0,0,1,21.37-32.27A98.19,98.19,0,0,1,185.55,382a95.91,95.91,0,0,1,38.21-7.65,108.8,108.8,0,0,1,33.26,5.1A103.62,103.62,0,0,1,285.75,393.59Z"/>
    <path class="cls-2"
          d="M327.36,410.29a10.06,10.06,0,0,1-7.22-2.55,8.52,8.52,0,0,1-2.69-6.51V399a8.36,8.36,0,0,1,2.83-6.51,10.56,10.56,0,0,1,7.36-2.55,9.29,9.29,0,0,1,6.65,2.55A8.59,8.59,0,0,1,337,399v2.26a8.56,8.56,0,0,1-2.69,6.51A9.65,9.65,0,0,1,327.36,410.29ZM333,569.65a5.79,5.79,0,0,1-5.66,5.66,5.32,5.32,0,0,1-4.11-1.69,5.68,5.68,0,0,1-1.55-4V435.2a5.79,5.79,0,0,1,5.66-5.66,5.3,5.3,0,0,1,4.1,1.7,5.66,5.66,0,0,1,1.56,4Z"/>
    <path class="cls-2"
          d="M385.66,575.31a5.31,5.31,0,0,1-4.1-1.69,5.69,5.69,0,0,1-1.56-4V439.73a5.81,5.81,0,0,1,5.66-5.66,5.29,5.29,0,0,1,4.11,1.7,5.71,5.71,0,0,1,1.56,4v47.84l-4.82,7.36a69.89,69.89,0,0,1,3.82-22.37,74.43,74.43,0,0,1,11.19-21.08,59,59,0,0,1,18-15.85A48.33,48.33,0,0,1,444,429.54a35.42,35.42,0,0,1,8.5,1.13c3,.76,4.53,2.55,4.53,5.38a6.45,6.45,0,0,1-1.42,4.25,4.58,4.58,0,0,1-3.68,1.7,9.15,9.15,0,0,1-4.1-1.28,15.17,15.17,0,0,0-6.94-1.27A33.7,33.7,0,0,0,423,444.83a62.91,62.91,0,0,0-16,14.29,75.87,75.87,0,0,0-11.47,19.39,54.07,54.07,0,0,0-4.24,20.38v70.76a5.79,5.79,0,0,1-5.67,5.66Z"/>
    <path class="cls-2"
          d="M491.24,575.31a5.3,5.3,0,0,1-4.1-1.69,5.69,5.69,0,0,1-1.56-4V371.51a5.68,5.68,0,0,1,1.56-4,5.81,5.81,0,0,1,8.21,0,5.72,5.72,0,0,1,1.55,4V569.65a5.72,5.72,0,0,1-1.55,4A5.32,5.32,0,0,1,491.24,575.31Zm98.22-142.94a5.45,5.45,0,0,1,4,1.7,5.77,5.77,0,0,1,1.7,4.24,5.38,5.38,0,0,1-2,4.25l-98.22,81.8-.56-13.58,91.43-76.71A5.13,5.13,0,0,1,589.46,432.37Zm1.7,142.94a5.94,5.94,0,0,1-4.24-2l-68.5-73,8.49-7.35,68.22,72.46a5.76,5.76,0,0,1,1.69,4.24,4.67,4.67,0,0,1-2.26,4.25A7.46,7.46,0,0,1,591.16,575.31Z"/>
    <path class="cls-2"
          d="M643.81,569.65a5.79,5.79,0,0,1-5.66,5.66,5.28,5.28,0,0,1-4.1-1.69,5.69,5.69,0,0,1-1.56-4V371.51a5.81,5.81,0,0,1,5.66-5.66,5.3,5.3,0,0,1,4.1,1.7,5.68,5.68,0,0,1,1.56,4Z"/>
    <path class="cls-2"
          d="M819,504q0,21-9.06,37.79a69.39,69.39,0,0,1-24.76,26.61q-15.72,9.76-35.81,9.76a66.64,66.64,0,0,1-35.67-9.76,70,70,0,0,1-25.05-26.61q-9.2-16.83-9.2-37.79,0-21.23,9.2-38.07a70.08,70.08,0,0,1,25.05-26.6,66.65,66.65,0,0,1,35.67-9.77q20.1,0,35.81,9.77A69.44,69.44,0,0,1,810,465.91Q819,482.76,819,504Zm-11.32,0q0-18.39-7.5-32.69a58.31,58.31,0,0,0-20.67-22.64q-13.15-8.36-30.14-8.35a55.24,55.24,0,0,0-30,8.35,59,59,0,0,0-20.94,22.64q-7.65,14.29-7.64,32.69,0,18.12,7.64,32.41A59,59,0,0,0,719.38,559a55.24,55.24,0,0,0,30,8.35q17,0,30.14-8.35a58.34,58.34,0,0,0,20.67-22.65Q807.7,522.11,807.7,504Z"/>
    <path class="cls-2"
          d="M576.87,684.32a2.67,2.67,0,0,1,2.58,2.58,2.39,2.39,0,0,1-.78,1.87,2.55,2.55,0,0,1-1.8.71H529.52a2.4,2.4,0,0,1-1.87-.77,2.62,2.62,0,0,1-.71-1.81V601.76a2.46,2.46,0,0,1,.78-1.8,2.79,2.79,0,0,1,3.87,0,2.48,2.48,0,0,1,.77,1.8v84.89L530,684.32Z"/>
    <path class="cls-2"
          d="M598.28,614.28a4.59,4.59,0,0,1-3.29-1.16,3.92,3.92,0,0,1-1.23-3v-1a3.81,3.81,0,0,1,1.29-3,4.8,4.8,0,0,1,3.36-1.16,4.22,4.22,0,0,1,3,1.16,3.88,3.88,0,0,1,1.22,3v1a3.91,3.91,0,0,1-1.22,3A4.43,4.43,0,0,1,598.28,614.28Zm2.58,72.62a2.48,2.48,0,0,1-.78,1.81,2.43,2.43,0,0,1-1.8.77,2.39,2.39,0,0,1-1.87-.77,2.57,2.57,0,0,1-.71-1.81V625.63a2.63,2.63,0,0,1,2.58-2.58,2.43,2.43,0,0,1,1.87.77,2.62,2.62,0,0,1,.71,1.81Z"/>
    <path class="cls-2"
          d="M652.59,623.05a28.34,28.34,0,0,1,10.83,2.06,31.06,31.06,0,0,1,8.84,5.42,27.08,27.08,0,0,1,5.93,7.22,15.73,15.73,0,0,1,2.13,7.62l-1.68-4.78v-12.9a2.57,2.57,0,0,1,.71-1.8,2.64,2.64,0,0,1,3.75,0,2.56,2.56,0,0,1,.7,1.8v55.47a34.46,34.46,0,0,1-4.06,17.16,28,28,0,0,1-11.16,11.09,33.93,33.93,0,0,1-16.51,3.87,41.32,41.32,0,0,1-10.38-1.35,33.72,33.72,0,0,1-8.71-3.42q-3.48-2.07-3.48-4.39a2.38,2.38,0,0,1,.58-1.67,2,2,0,0,1,1.61-.65,3.07,3.07,0,0,1,2.39,1.42A9.27,9.27,0,0,0,638,707.8l3.16,1a32.58,32.58,0,0,0,4.84,1.1,40.54,40.54,0,0,0,6.32.45q12.25,0,19.28-7.55t7-19.67V670.39l1.29.13a27.33,27.33,0,0,1-4.51,9.42,25.91,25.91,0,0,1-6.77,6.25,28.46,28.46,0,0,1-8,3.49,31.88,31.88,0,0,1-8.06,1.09,29.09,29.09,0,0,1-15.93-4.45A31.91,31.91,0,0,1,625.5,674.2a38.51,38.51,0,0,1,0-34.7,31.48,31.48,0,0,1,11.16-12.07A29.47,29.47,0,0,1,652.59,623.05Zm.26,4.9a25,25,0,0,0-13.49,3.74A26.19,26.19,0,0,0,630,642a34,34,0,0,0,0,29.73,26.49,26.49,0,0,0,9.41,10.39,26.09,26.09,0,0,0,26.9.13,26.3,26.3,0,0,0,9.42-10.2,34.74,34.74,0,0,0,0-30.31,25.82,25.82,0,0,0-9.42-10.13A25.37,25.37,0,0,0,652.85,628Z"/>
    <path class="cls-2"
          d="M737,624.34q7.74,0,12.84,3.35a20.64,20.64,0,0,1,7.61,9,30.7,30.7,0,0,1,2.51,12.52V686.9a2.63,2.63,0,0,1-2.58,2.58,2.4,2.4,0,0,1-1.87-.77,2.62,2.62,0,0,1-.71-1.81V649.24a27,27,0,0,0-1.8-10.07,15.81,15.81,0,0,0-5.68-7.22q-3.87-2.72-10.32-2.71A23.42,23.42,0,0,0,726.12,632a25.1,25.1,0,0,0-8.71,7.22A16.28,16.28,0,0,0,714,649.24V686.9a2.51,2.51,0,0,1-.77,1.81,2.47,2.47,0,0,1-1.81.77,2.4,2.4,0,0,1-1.87-.77,2.57,2.57,0,0,1-.71-1.81V596.6a2.65,2.65,0,0,1,2.58-2.58,2.41,2.41,0,0,1,1.87.78,2.59,2.59,0,0,1,.71,1.8v45l-3.23,6.2a18.35,18.35,0,0,1,2.33-8.91,27,27,0,0,1,6.12-7.54,30.21,30.21,0,0,1,8.45-5.16A24.69,24.69,0,0,1,737,624.34Z"/>
    <path class="cls-2"
          d="M779,624.6h29.92a2.24,2.24,0,0,1,1.74.77,2.43,2.43,0,0,1,.71,1.68,2.33,2.33,0,0,1-.71,1.74,2.37,2.37,0,0,1-1.74.71H779a2.7,2.7,0,0,1-2.46-2.45,2.25,2.25,0,0,1,.78-1.74A2.39,2.39,0,0,1,779,624.6Zm13.15-19a2.39,2.39,0,0,1,1.87.78,2.55,2.55,0,0,1,.71,1.8v67.21a13.58,13.58,0,0,0,1.1,6.26,5.16,5.16,0,0,0,2.77,2.58,9.81,9.81,0,0,0,3.23.58,4.26,4.26,0,0,0,1.55-.26,4.13,4.13,0,0,1,1.54-.26,2,2,0,0,1,1.55.71,2.17,2.17,0,0,1-.84,3.61,7.35,7.35,0,0,1-3.67.84c-.52,0-1.44,0-2.78-.06a10.5,10.5,0,0,1-4.25-1.16,8.83,8.83,0,0,1-3.81-4c-1-1.94-1.55-4.79-1.55-8.58V608.21a2.67,2.67,0,0,1,2.58-2.58Z"/>
  </g>
</svg>
